{"title":"Comedy Nights With Kapil 9th Aug 2014 Akshay 1080p GreatPalash","uid":10734502,"size":1044447385,"categoryP":"video","categoryS":"hd___tv_shows","magnet":"?xt=urn:btih:c673fbba83f1417e6bed70385727a92dadff9d6e&amp;dn=Comedy+Nights+With+Kapil+9th+Aug+2014+Akshay+1080p+GreatPalash&amp;tr=udp%3A%2F%2Ftracker.openbittorrent.com%3A80&amp;tr=udp%3A%2F%2Fopen.demonii.com%3A1337&amp;tr=udp%3A%2F%2Ftracker.coppersurfer.tk%3A6969&amp;tr=udp%3A%2F%2Fexodus.desync.com%3A6969","seeders":1,"leechers":0,"uploader":"Palash995","files":-1,"time":1407678158,"description":"Comedy Nights With Kapil 9th Aug 2014 Ft.Akshay,Tammana 1080p HDTV Rip AC3 5.1 {GreatPalash}\n &lt;a href=&quot;\nhttp://www.btpics.com/images/CB0A1.png&quot; rel=&quot;nofollow&quot; target=&quot;_NEW&quot;&gt;\nhttp://www.btpics.com/images/CB0A1.png&lt;/a&gt;\n\nScreenshots:-\n &lt;a href=&quot;\nhttp://www.btpics.com/images/TmzgI.png&quot; rel=&quot;nofollow&quot; target=&quot;_NEW&quot;&gt;\nhttp://www.btpics.com/images/TmzgI.png&lt;/a&gt;\n &lt;a href=&quot;\nhttp://www.btpics.com/images/dw1z0.png&quot; rel=&quot;nofollow&quot; target=&quot;_NEW&quot;&gt;\nhttp://www.btpics.com/images/dw1z0.png&lt;/a&gt;\n &lt;a href=&quot;\nhttp://www.btpics.com/images/d5lNs.png&quot; rel=&quot;nofollow&quot; target=&quot;_NEW&quot;&gt;\nhttp://www.btpics.com/images/d5lNs.png&lt;/a&gt;\n &lt;a href=&quot;\nhttp://www.btpics.com/images/FXiM1.png&quot; rel=&quot;nofollow&quot; target=&quot;_NEW&quot;&gt;\nhttp://www.btpics.com/images/FXiM1.png&lt;/a&gt;\n &lt;a href=&quot;\nhttp://www.btpics.com/images/O3nTE.png&quot; rel=&quot;nofollow&quot; target=&quot;_NEW&quot;&gt;\nhttp://www.btpics.com/images/O3nTE.png&lt;/a&gt;\n &lt;a href=&quot;\nhttp://www.btpics.com/images/amHt.png&quot; rel=&quot;nofollow&quot; target=&quot;_NEW&quot;&gt;\nhttp://www.btpics.com/images/amHt.png&lt;/a&gt;\n &lt;a href=&quot;\nhttp://www.btpics.com/images/jRnK.png&quot; rel=&quot;nofollow&quot; target=&quot;_NEW&quot;&gt;\nhttp://www.btpics.com/images/jRnK.png&lt;/a&gt;\n &lt;a href=&quot;\nhttp://www.btpics.com/images/LDCv6.png&quot; rel=&quot;nofollow&quot; target=&quot;_NEW&quot;&gt;\nhttp://www.btpics.com/images/LDCv6.png&lt;/a&gt;\n &lt;a href=&quot;\nhttp://www.btpics.com/images/mLuHw.png&quot; rel=&quot;nofollow&quot; target=&quot;_NEW&quot;&gt;\nhttp://www.btpics.com/images/mLuHw.png&lt;/a&gt;\n &lt;a href=&quot;\nhttp://www.btpics.com/images/EuPp2.png&quot; rel=&quot;nofollow&quot; target=&quot;_NEW&quot;&gt;\nhttp://www.btpics.com/images/EuPp2.png&lt;/a&gt;\n\nMedia Info:-\n\nGeneral\nComplete name                            : Comedy Nights With Kapil 9th Aug 2014 Ft.Akshay,Tammana 1080p HDTV Rip AC3 5.1 {GreatPalash}.mp4\nFormat                                   : MPEG-4\nFormat profile                           : Base Media\nCodec ID                                 : isom\nFile size                                : 987 MiB\nDuration                                 : 1h 10mn\nOverall bit rate mode                    : Variable\nOverall bit rate                         : 1 967 Kbps\n\nVideo\nID                                       : 1\nFormat                                   : AVC\nFormat/Info                              : Advanced Video Codec\nFormat profile                           : &lt;a class=&quot;__cf_email__&quot; href=&quot;/cdn-cgi/l/email-protection&quot; data-cfemail=&quot;a2eacbc5cae2ee968c93&quot;&gt;[email&amp;#160;protected]&lt;/a&gt;&lt;script cf-hash='f9e31' type=&quot;text/javascript&quot;&gt;\n/* &lt;![CDATA[ */!function(){try{var t=&quot;currentScript&quot;in document?document.currentScript:function(){for(var t=document.getElementsByTagName(&quot;script&quot;),e=t.length;e--;)if(t[e].getAttribute(&quot;cf-hash&quot;))return t[e]}();if(t&amp;&amp;t.previousSibling){var e,r,n,i,c=t.previousSibling,a=c.getAttribute(&quot;data-cfemail&quot;);if(a){for(e=&quot;&quot;,r=parseInt(a.substr(0,2),16),n=2;a.length-n;n+=2)i=parseInt(a.substr(n,2),16)^r,e+=String.fromCharCode(i);e=document.createTextNode(e),c.parentNode.replaceChild(e,c)}}}catch(u){}}();/* ]]&gt; */&lt;/script&gt;\nFormat settings, CABAC                   : Yes\nFormat settings, ReFrames                : 4 frames\nCodec ID                                 : avc1\nCodec ID/Info                            : Advanced Video Coding\nDuration                                 : 1h 10mn\nBit rate                                 : 1 735 Kbps\nMaximum bit rate                         : 4 967 Kbps\nWidth                                    : 1 920 pixels\nHeight                                   : 1 080 pixels\nDisplay aspect ratio                     : 16:9\nFrame rate mode                          : Constant\nFrame rate                               : 25.000 fps\nColor space                              : YUV\nChroma subsampling                       : 4:2:0\nBit depth                                : 8 bits\nScan type                                : Progressive\nBits/(Pixel*Frame)                       : 0.033\nStream size                              : 881 MiB (89%)\nEncoded date                             : UTC 2014-08-09 22:53:54\nTagged date                              : UTC 2014-08-10 00:25:54\nColor primaries                          : Generic film\n\nAudio\nID                                       : 2\nFormat                                   : AAC\nFormat/Info                              : Advanced Audio Codec\nFormat profile                           : LC\nCodec ID                                 : 40\nDuration                                 : 1h 10mn\nBit rate mode                            : Variable\nBit rate                                 : 206 Kbps\nMaximum bit rate                         : 249 Kbps\nChannel(s)                               : 6 channels\nChannel positions                        : Front: L C R, Side: L R, LFE\nSampling rate                            : 44.1 KHz\nCompression mode                         : Lossy\nStream size                              : 103 MiB (10%)\n\nAll Credits To Team Telly","torrent":{"xt":"urn:btih:c673fbba83f1417e6bed70385727a92dadff9d6e","amp;dn":"Comedy+Nights+With+Kapil+9th+Aug+2014+Akshay+1080p+GreatPalash","amp;tr":["udp%3A%2F%2Ftracker.openbittorrent.com%3A80","udp%3A%2F%2Fopen.demonii.com%3A1337","udp%3A%2F%2Ftracker.coppersurfer.tk%3A6969","udp%3A%2F%2Fexodus.desync.com%3A6969"],"infoHash":"c673fbba83f1417e6bed70385727a92dadff9d6e","infoHashBuffer":{"type":"Buffer","data":[198,115,251,186,131,241,65,126,107,237,112,56,87,39,169,45,173,255,157,110]},"announce":[],"urlList":[]}}